<?xml version="1.0" encoding="utf-8"?>
<!-- Generator: Adobe Illustrator 23.1.1, SVG Export Plug-In . SVG Version: 6.00 Build 0)  -->
<svg version="1.1" id="Ebene_1" xmlns="http://www.w3.org/2000/svg" xmlns:xlink="http://www.w3.org/1999/xlink" x="0px" y="0px"
	 viewBox="0 0 320 240" style="enable-background:new 0 0 320 240;" xml:space="preserve">
<style type="text/css">
	.st0{fill:#E11B22;}
	.st1{fill:url(#XMLID_3_);}
	.st2{fill:url(#XMLID_4_);}
	.st3{fill:url(#XMLID_5_);}
	.st4{fill:url(#XMLID_6_);}
	.st5{fill:url(#XMLID_7_);}
	.st6{fill:url(#XMLID_8_);}
	.st7{fill:url(#XMLID_16_);}
	.st8{fill:url(#XMLID_19_);}
	.st9{font-family:'HouseSlant-Regular';}
	.st10{font-size:47.2022px;}
	.st11{fill:#02205F;}
</style>
<g id="XMLID_1_">
	<g id="XMLID_11_">
		<g id="XMLID_10_">
			<path id="XMLID_68_" class="st0" d="M206.7,135c0.1-0.3,0.2-0.5,0.3-0.8h-1L206.7,135z"/>
			<path id="XMLID_69_" class="st0" d="M197.3,144.2l-0.8-0.8h-12.9C187.9,145.6,192.9,145.9,197.3,144.2z"/>
			<path id="XMLID_70_" class="st0" d="M179.7,140.6c0.1,0.1,0.2,0,0.3,0.2h13.9l-2-1.8h-13.7C178.7,139.6,179.2,140.1,179.7,140.6z
				"/>
			<path id="XMLID_71_" class="st0" d="M203.4,131.5h4.2c0.1-0.8,0.2-1.3,0.2-1.8h-6.4L203.4,131.5z"/>
			<path id="XMLID_72_" class="st0" d="M176.5,136h12.6c-0.6-0.5-1-1.3-1.2-1.8h-12.1C176,134.8,176.2,135.3,176.5,136z"/>
			<polygon id="XMLID_73_" class="st0" points="155.7,96.8 149.7,96.8 151.7,98.8 153.7,98.8 			"/>
			<path id="XMLID_74_" class="st0" d="M154.6,82.9h-32.7c0.9,0.5,1.8,1.3,2.8,2h31.9L154.6,82.9z"/>
			<polygon id="XMLID_75_" class="st0" points="159.2,87.4 140.3,87.4 142.6,89.7 161.4,89.7 			"/>
			<path id="XMLID_76_" class="st0" d="M150.1,78.3h-31.8c0.4,0.5,0.8,1,1.3,2h32.5L150.1,78.3z"/>
			<polygon id="XMLID_77_" class="st0" points="160.2,92.2 145.1,92.2 147.1,94.3 158.2,94.3 			"/>
			<path id="XMLID_78_" class="st0" d="M148,64.1h-12.2c0.5,0.5,0.9,1.5,1,2.3h11.9C148.6,65.6,148.3,64.6,148,64.1z"/>
			<path id="XMLID_79_" class="st0" d="M149.3,71c0-1,0-1.5-0.1-2h-12.3c-0.2,0.5-0.4,1.5-0.9,2H149.3z"/>
			<path id="XMLID_80_" class="st0" d="M145.2,59.6h-13.8l2,2h13.3C146.3,60.6,145.8,60.1,145.2,59.6z"/>
			<path id="XMLID_81_" class="st0" d="M121.9,68.9h-5.4c-0.1,0.5-0.1,1-0.1,2h7.5L121.9,68.9z"/>
			<path id="XMLID_82_" class="st0" d="M149,73.5h-15.5c-2.1,1.3-4.9,1.3-7,0h-9.9c0.1,0.5,0.3,1.3,0.6,2.3h31.2
				C148.6,74.8,148.8,74,149,73.5z"/>
			<path id="XMLID_83_" class="st0" d="M186.8,113.2h9.1C192.9,112.2,189.8,112.2,186.8,113.2z"/>
			<polygon id="XMLID_84_" class="st0" points="166.1,113.2 185,113.2 182.7,111 163.9,111 			"/>
			<polygon id="XMLID_85_" class="st0" points="162.9,108.4 180.2,108.4 178.2,106.4 164.9,106.4 			"/>
			<path id="XMLID_86_" class="st0" d="M174.9,129.7c0,0.5,0.1,1,0.2,1.8h12.4c0.1-0.8,0.3-1.3,0.6-1.8H174.9z"/>
			<polygon id="XMLID_87_" class="st0" points="167.4,103.9 175.6,103.9 173.3,101.6 169.7,101.6 			"/>
			<path id="XMLID_88_" class="st0" d="M117.5,64.5c-0.2,0.6-0.4,1.1-0.6,1.9h2.5L117.5,64.5z"/>
			<path id="XMLID_89_" class="st0" d="M126.9,55.1l1.9,1.9h13.6C137.8,53.5,131.9,53.2,126.9,55.1z"/>
			<path id="XMLID_90_" class="st0" d="M175,127.2h15.2l0.3-0.3c2.2-2.2,5.9-2.2,8.1,0l0.3,0.3h8.8c-0.1-1-0.2-1.8-0.4-2.3h-31.8
				C175.3,125.4,175.1,126.2,175,127.2z"/>
			<path id="XMLID_91_" class="st0" d="M175.2,122.1h31.2c-0.3-0.8-0.6-1.3-1-1.8h-32.1L175.2,122.1z"/>
			<path id="XMLID_92_" class="st0" d="M170.7,117.8h32.7c-0.1-0.5-0.2-0.3-0.4-0.4c-0.6-0.6-1.2-1.4-1.9-1.6h-32.5L170.7,117.8z"/>
			<polygon id="XMLID_93_" class="st0" points="161.3,108.4 159.3,106.4 159.3,106.4 161.3,108.4 			"/>
			<polygon id="XMLID_94_" class="st0" points="170.5,98.8 170.6,98.8 168.6,96.8 168.5,96.8 			"/>
			<polygon id="XMLID_95_" class="st0" points="154.5,101.6 154.4,101.6 156.7,103.9 156.8,103.9 			"/>
			<polygon id="XMLID_96_" class="st0" points="164,92.2 166,94.3 166,94.3 164,92.2 			"/>
			<polygon id="XMLID_97_" class="st0" points="156.8,103.9 167.4,103.9 169.7,101.6 154.5,101.6 			"/>
			<polygon id="XMLID_98_" class="st0" points="160.2,92.2 158.2,94.3 166,94.3 164,92.2 			"/>
			<polygon id="XMLID_99_" class="st0" points="161.3,108.4 162.9,108.4 164.9,106.4 159.3,106.4 			"/>
			<polygon id="XMLID_100_" class="st0" points="153.7,98.8 170.5,98.8 168.5,96.8 155.7,96.8 			"/>
			<path id="XMLID_101_" class="st0" d="M191.7,73.5h-16.5c0.1,0.5,0.3,1.3,0.6,2.3h31.2c0.2-1,0.4-1.8,0.6-2.3h-10
				C195.7,74.2,193.5,74.2,191.7,73.5z"/>
			<path id="XMLID_102_" class="st0" d="M172.1,80.3h32.5c0.5-1,0.9-1.5,1.2-2h-31.7L172.1,80.3z"/>
			<path id="XMLID_103_" class="st0" d="M200.3,71h7.5c0-1,0-1.5-0.1-2h-5.4L200.3,71z"/>
			<path id="XMLID_104_" class="st0" d="M179,59.6c-0.6,0.5-1.1,1-1.5,2h13.4l2-2H179z"/>
			<path id="XMLID_105_" class="st0" d="M175.4,66.4h12.2c0.1-0.8,0.4-1.8,0.9-2.3h-12.3C175.8,64.6,175.6,65.6,175.4,66.4z"/>
			<path id="XMLID_106_" class="st0" d="M197.3,55.1c-5.1-2-10.9-1.6-15.5,1.9h13.6L197.3,55.1z"/>
			<polygon id="XMLID_107_" class="st0" points="174.1,94.3 177.1,94.3 179,92.2 172.1,92.2 			"/>
			<polygon id="XMLID_108_" class="st0" points="169.5,89.7 181.6,89.7 183.9,87.4 167.2,87.4 			"/>
			<path id="XMLID_109_" class="st0" d="M174.9,71h14c-0.5-0.5-0.9-1.5-1.1-2h-12.8C174.9,69.4,174.9,69.9,174.9,71z"/>
			<path id="XMLID_110_" class="st0" d="M206.7,64.5l-1.9,1.9h2.4C207.1,65.6,206.9,65.2,206.7,64.5z"/>
			<path id="XMLID_111_" class="st0" d="M167.6,84.9h31.9c1-0.8,1.9-1.5,2.8-2h-32.7L167.6,84.9z"/>
			<polygon id="XMLID_112_" class="st0" points="151.2,106.4 146,106.4 144,108.4 153.2,108.4 			"/>
			<path id="XMLID_113_" class="st0" d="M136.6,129.7c0.2,0.5,0.4,1,0.4,1.8H149c0.1-0.8,0.2-1.3,0.2-1.8H136.6z"/>
			<path id="XMLID_115_" class="st0" d="M122.8,129.7h-6.4c0,0.5,0.1,1,0.2,1.8h4.3L122.8,129.7z"/>
			<path id="XMLID_116_" class="st0" d="M155.5,115.8H123c-0.7,0.3-1.3,1.1-1.9,1.7c-0.1,0.1-0.2-0.1-0.3,0.4h32.7L155.5,115.8z"/>
			<polygon id="XMLID_117_" class="st0" points="148.6,103.7 148.6,103.8 148.7,103.8 			"/>
			<path id="XMLID_121_" class="st0" d="M125.8,126.6c2.3-2.3,6-2.3,8.3,0l0.6,0.6h14.4c-0.1-1-0.2-1.8-0.4-2.3h-31.8
				c-0.2,0.5-0.3,1.3-0.4,2.3h8.9L125.8,126.6z"/>
			<path id="XMLID_122_" class="st0" d="M151,120.3h-32.2c-0.4,0.5-0.8,1-1.1,1.8H149L151,120.3z"/>
			<polygon id="XMLID_123_" class="st0" points="155.8,111 141.5,111 139.2,113.2 158.1,113.2 			"/>
			<path id="XMLID_124_" class="st0" d="M128.3,113.2h9C134.3,112.2,131.2,112.2,128.3,113.2z"/>
			<path id="XMLID_125_" class="st0" d="M148.4,134.3h-11.9c-0.3,0.5-0.7,1.2-1.2,1.7l-0.2,0.1h12.6
				C148,135.3,148.2,134.8,148.4,134.3z"/>
			<path id="XMLID_126_" class="st0" d="M144.5,140.7c0.5-0.5,1-1.1,1.5-1.6h-13.7l-2,1.8h13.9C144.3,140.6,144.4,140.8,144.5,140.7
				z"/>
			<path id="XMLID_127_" class="st0" d="M117.4,135.1l0.8-0.8h-1.1C117.2,134.5,117.3,134.8,117.4,135.1z"/>
			<path id="XMLID_128_" class="st0" d="M126.9,144.2c4.4,1.7,9.5,1.4,13.8-0.9h-12.9L126.9,144.2z"/>
		</g>
		<linearGradient id="XMLID_3_" gradientUnits="userSpaceOnUse" x1="157.8332" y1="144.5258" x2="157.8332" y2="53.0934">
			<stop  offset="0" style="stop-color:#02205F"/>
			<stop  offset="0.1997" style="stop-color:#013571"/>
			<stop  offset="0.4393" style="stop-color:#00467F"/>
			<stop  offset="0.6966" style="stop-color:#005188"/>
			<stop  offset="1" style="stop-color:#00548B"/>
		</linearGradient>
		<path id="XMLID_9_" class="st1" d="M134.5,84.9l37.3,37.3c-2.2,5.8-1.1,12.8,3.7,17.6c4.8,4.8,11.8,5.9,17.6,3.7l-8.1-8.1
			c-2.2-2.2-2.2-5.9,0-8.1l1.3-1.3c2.2-2.2,5.9-2.2,8.1,0l8.1,8.1c2.2-5.8,1.1-12.8-3.7-17.6c-4.8-4.8-11.8-5.9-17.6-3.7l-37.3-37.3
			c2.2-5.8,1.1-12.8-3.7-17.6c-4.8-4.8-11.8-5.9-17.6-3.7l8.4,8.4c2.3,2.3,2.3,6,0,8.3l-1.1,1.1c-2.3,2.3-6,2.3-8.3,0l-8.4-8.4
			c-2.2,5.8-1.1,12.8,3.7,17.6C121.7,86,128.7,87.1,134.5,84.9z"/>
		<g id="XMLID_12_">
			<linearGradient id="XMLID_4_" gradientUnits="userSpaceOnUse" x1="182.7055" y1="94.7702" x2="182.7055" y2="53.1062">
				<stop  offset="0" style="stop-color:#02205F"/>
				<stop  offset="1" style="stop-color:#00548B"/>
			</linearGradient>
			<path id="XMLID_15_" class="st2" d="M202.4,63.6l-8.1,8.1c-2.2,2.2-5.9,2.1-8.1-0.1l-1.3-1.3c-2.2-2.2-2.2-5.8,0-8l8.1-8.1
				c-5.9-2.3-12.8-1.1-17.6,3.7c-4.8,4.8-6,11.7-3.7,17.6l-9.8,9.8l9.4,9.4l9.8-9.8c5.8,2.2,12.8,1.1,17.6-3.7
				C203.5,76.5,204.7,69.4,202.4,63.6z"/>
			<linearGradient id="XMLID_5_" gradientUnits="userSpaceOnUse" x1="132.933" y1="144.5551" x2="132.933" y2="102.8463">
				<stop  offset="0" style="stop-color:#02205F"/>
				<stop  offset="1" style="stop-color:#00548B"/>
			</linearGradient>
			<path id="XMLID_17_" class="st3" d="M153.8,112.3l-9.4-9.4l-9.9,9.9c-5.9-2.3-12.8-1.1-17.6,3.7c-4.8,4.8-6,11.7-3.7,17.6
				l8.4-8.4c2.3-2.3,6-2.3,8.3-0.1l1.1,1.1c2.3,2.3,2.3,6.1,0,8.4l-8.4,8.4c5.8,2.2,12.8,1.1,17.6-3.7c4.8-4.8,5.9-11.8,3.7-17.6
				L153.8,112.3z"/>
		</g>
		<linearGradient id="XMLID_6_" gradientUnits="userSpaceOnUse" x1="114.9476" y1="98.8096" x2="200.7176" y2="98.8096">
			<stop  offset="0" style="stop-color:#00548B"/>
			<stop  offset="1" style="stop-color:#02205F"/>
		</linearGradient>
		<path id="XMLID_18_" class="st4" d="M187.1,141.7c-3.7,0-7.1-1.4-9.7-4c-3.8-3.8-5-9.5-3.1-14.6l0.7-1.7l-39.8-39.8l-1.7,0.6
			c-1.6,0.6-3.2,0.9-4.9,0.9c0,0,0,0,0,0c-3.7,0-7.1-1.4-9.7-3.9c-2.6-2.6-4-6.2-4-9.8l4.7,4.7c1.6,1.6,3.8,2.5,6.2,2.5
			c2.3,0,4.5-0.9,6.2-2.5l1.1-1.1c1.6-1.6,2.5-3.8,2.5-6.2c0-2.3-0.9-4.5-2.5-6.1l-4.6-4.6c0.1,0,0.1,0,0.2,0c3.7,0,7.1,1.4,9.7,3.9
			c3.8,3.8,5,9.5,3.1,14.6l-0.7,1.7l39.8,39.8l1.7-0.7c1.6-0.6,3.2-0.9,4.9-0.9c3.7,0,7.1,1.4,9.7,4c2.6,2.6,4,6.2,4,9.8l-4.3-4.3
			c-1.6-1.6-3.8-2.5-6-2.5s-4.4,0.9-6,2.5l-1.3,1.3c-3.3,3.3-3.3,8.8,0,12.1l4.4,4.4C187.2,141.7,187.2,141.7,187.1,141.7z"/>
		<linearGradient id="XMLID_7_" gradientUnits="userSpaceOnUse" x1="165.8901" y1="73.347" x2="200.7092" y2="73.347">
			<stop  offset="0" style="stop-color:#02205F"/>
			<stop  offset="1" style="stop-color:#00548B"/>
		</linearGradient>
		<path id="XMLID_14_" class="st5" d="M165.9,85.3l9.1-9.1l-0.7-1.7c-2-5-0.8-10.7,3.1-14.6c2.6-2.6,6-4,9.6-4c0.1,0,0.2,0,0.2,0
			l-4.4,4.4c-3.3,3.3-3.3,8.7,0,12l1.3,1.3c1.6,1.6,3.8,2.5,6.1,2.5c2.3,0,4.4-0.9,6-2.5l4.4-4.4c0.1,3.6-1.3,7.2-4,9.8
			c-2.5,2.5-6,3.9-9.7,3.9c0,0,0,0,0,0c-1.7,0-3.4-0.3-4.9-0.9l-1.7-0.6l-9.1,9.1L165.9,85.3z"/>
		<linearGradient id="XMLID_8_" gradientUnits="userSpaceOnUse" x1="114.8961" y1="124.2879" x2="149.7944" y2="124.2879">
			<stop  offset="0" style="stop-color:#02205F"/>
			<stop  offset="1" style="stop-color:#00548B"/>
		</linearGradient>
		<path id="XMLID_13_" class="st6" d="M128.4,141.7l4.7-4.7c3.4-3.4,3.4-9,0-12.4l-1.1-1.1c-1.6-1.6-3.8-2.5-6.1-2.5
			c-2.4,0-4.6,0.9-6.2,2.6l-4.7,4.7c-0.1-3.6,1.3-7.2,4-9.9c2.6-2.6,6-4,9.6-4c1.7,0,3.4,0.3,4.9,0.9l1.7,0.7l9.2-9.2l5.4,5.4
			l-9.2,9.2l0.7,1.7c1.9,5.1,0.7,10.8-3.1,14.6c-2.5,2.5-6,3.9-9.7,3.9C128.5,141.7,128.4,141.7,128.4,141.7z"/>
	</g>
	<linearGradient id="XMLID_16_" gradientUnits="userSpaceOnUse" x1="160.0112" y1="178.4984" x2="160.0112" y2="20">
		<stop  offset="0" style="stop-color:#02205F"/>
		<stop  offset="0.1997" style="stop-color:#013571"/>
		<stop  offset="0.4393" style="stop-color:#00467F"/>
		<stop  offset="0.6966" style="stop-color:#005188"/>
		<stop  offset="1" style="stop-color:#00548B"/>
	</linearGradient>
	<path id="XMLID_20_" class="st7" d="M160,178.5l-68.2-39.6V59.6L160,20l68.2,39.6v79.2L160,178.5z M99.4,134.5l60.6,35.2l60.6-35.2
		V64L160,28.9L99.4,64V134.5z"/>
	<linearGradient id="XMLID_19_" gradientUnits="userSpaceOnUse" x1="160.0112" y1="175.2189" x2="160.0112" y2="23.2795">
		<stop  offset="0" style="stop-color:#00548B"/>
		<stop  offset="0.3034" style="stop-color:#005188"/>
		<stop  offset="0.5607" style="stop-color:#00467F"/>
		<stop  offset="0.8003" style="stop-color:#013571"/>
		<stop  offset="1" style="stop-color:#02205F"/>
	</linearGradient>
	<path id="XMLID_25_" class="st8" d="M94.6,137.2v-76l65.4-38l65.4,38v76l-65.4,38L94.6,137.2z M96.6,62.4v73.7l63.4,36.8l63.4-36.8
		V62.4L160,25.6L96.6,62.4z"/>
</g>
<g>
	<g>
		<text transform="matrix(0.7806 0 0 1 95 220.9336)" class="st0 st9 st10">PC HERO</text>
		<text transform="matrix(0.7806 0 0 1 92 217.9336)" class="st0 st9 st10">PC HERO</text>
	</g>
	<g>
		<g>
			<text transform="matrix(0.7806 0 0 1 95 220.9336)" class="st0 st9 st10">PC HERO</text>
		</g>
		<g>
			<text transform="matrix(0.7806 0 0 1 92 217.9336)" class="st11 st9 st10">PC HERO</text>
		</g>
	</g>
</g>
</svg>
